<mxfile host="Electron" agent="Mozilla/5.0 (Windows NT 10.0; Win64; x64) AppleWebKit/537.36 (KHTML, like Gecko) draw.io/26.2.2 Chrome/134.0.6998.178 Electron/35.1.2 Safari/537.36" version="26.2.2">
  <diagram name="Page-1" id="sCsr8KbbfzcUMTD7Drd1">
    <mxGraphModel dx="3416" dy="1664" grid="1" gridSize="10" guides="1" tooltips="1" connect="1" arrows="1" fold="1" page="1" pageScale="1" pageWidth="850" pageHeight="1100" math="0" shadow="0">
      <root>
        <mxCell id="0" />
        <mxCell id="1" parent="0" />
        <mxCell id="MiLaBuK5yZqJPt-kDE5x-36" value="" style="edgeStyle=entityRelationEdgeStyle;fontSize=12;html=1;endArrow=ERoneToMany;rounded=0;exitX=0;exitY=0.5;exitDx=0;exitDy=0;" edge="1" parent="1" source="MiLaBuK5yZqJPt-kDE5x-3" target="MiLaBuK5yZqJPt-kDE5x-7">
          <mxGeometry width="100" height="100" relative="1" as="geometry">
            <mxPoint x="210" y="320" as="sourcePoint" />
            <mxPoint x="310" y="220" as="targetPoint" />
          </mxGeometry>
        </mxCell>
        <mxCell id="MiLaBuK5yZqJPt-kDE5x-37" value="" style="edgeStyle=entityRelationEdgeStyle;fontSize=12;html=1;endArrow=ERoneToMany;rounded=0;entryX=-0.02;entryY=0.531;entryDx=0;entryDy=0;entryPerimeter=0;exitX=0.997;exitY=0.32;exitDx=0;exitDy=0;exitPerimeter=0;" edge="1" parent="1" source="MiLaBuK5yZqJPt-kDE5x-7" target="MiLaBuK5yZqJPt-kDE5x-11">
          <mxGeometry width="100" height="100" relative="1" as="geometry">
            <mxPoint x="170" y="370" as="sourcePoint" />
            <mxPoint x="270" y="270" as="targetPoint" />
          </mxGeometry>
        </mxCell>
        <mxCell id="MiLaBuK5yZqJPt-kDE5x-38" value="" style="edgeStyle=entityRelationEdgeStyle;fontSize=12;html=1;endArrow=ERoneToMany;rounded=0;" edge="1" parent="1" source="MiLaBuK5yZqJPt-kDE5x-1" target="MiLaBuK5yZqJPt-kDE5x-7">
          <mxGeometry width="100" height="100" relative="1" as="geometry">
            <mxPoint x="150" y="310" as="sourcePoint" />
            <mxPoint x="250" y="210" as="targetPoint" />
          </mxGeometry>
        </mxCell>
        <mxCell id="MiLaBuK5yZqJPt-kDE5x-40" value="" style="edgeStyle=entityRelationEdgeStyle;fontSize=12;html=1;endArrow=ERoneToMany;rounded=0;entryX=-0.006;entryY=0.544;entryDx=0;entryDy=0;entryPerimeter=0;exitX=0.988;exitY=0.631;exitDx=0;exitDy=0;exitPerimeter=0;" edge="1" parent="1" source="MiLaBuK5yZqJPt-kDE5x-7" target="MiLaBuK5yZqJPt-kDE5x-9">
          <mxGeometry width="100" height="100" relative="1" as="geometry">
            <mxPoint x="170" y="370" as="sourcePoint" />
            <mxPoint x="270" y="270" as="targetPoint" />
          </mxGeometry>
        </mxCell>
        <mxCell id="MiLaBuK5yZqJPt-kDE5x-41" value="" style="edgeStyle=entityRelationEdgeStyle;fontSize=12;html=1;endArrow=ERoneToMany;rounded=0;entryX=1.021;entryY=0.556;entryDx=0;entryDy=0;entryPerimeter=0;exitX=-0.008;exitY=0.628;exitDx=0;exitDy=0;exitPerimeter=0;" edge="1" parent="1" source="MiLaBuK5yZqJPt-kDE5x-7" target="MiLaBuK5yZqJPt-kDE5x-21">
          <mxGeometry width="100" height="100" relative="1" as="geometry">
            <mxPoint x="150" y="460" as="sourcePoint" />
            <mxPoint x="290" y="630" as="targetPoint" />
            <Array as="points">
              <mxPoint x="400" y="470" />
            </Array>
          </mxGeometry>
        </mxCell>
        <mxCell id="MiLaBuK5yZqJPt-kDE5x-42" value="" style="endArrow=none;html=1;rounded=0;exitX=1.014;exitY=0.326;exitDx=0;exitDy=0;exitPerimeter=0;" edge="1" parent="1" source="MiLaBuK5yZqJPt-kDE5x-9" target="MiLaBuK5yZqJPt-kDE5x-16">
          <mxGeometry relative="1" as="geometry">
            <mxPoint x="120" y="700" as="sourcePoint" />
            <mxPoint x="280" y="700" as="targetPoint" />
          </mxGeometry>
        </mxCell>
        <mxCell id="MiLaBuK5yZqJPt-kDE5x-43" value="" style="edgeStyle=entityRelationEdgeStyle;fontSize=12;html=1;endArrow=ERoneToMany;rounded=0;entryX=0.5;entryY=0;entryDx=0;entryDy=0;exitX=0;exitY=0.5;exitDx=0;exitDy=0;" edge="1" parent="1" source="MiLaBuK5yZqJPt-kDE5x-5" target="MiLaBuK5yZqJPt-kDE5x-9">
          <mxGeometry width="100" height="100" relative="1" as="geometry">
            <mxPoint x="140" y="520" as="sourcePoint" />
            <mxPoint x="240" y="420" as="targetPoint" />
          </mxGeometry>
        </mxCell>
        <mxCell id="MiLaBuK5yZqJPt-kDE5x-44" value="" style="group" vertex="1" connectable="0" parent="1">
          <mxGeometry x="180" y="60" width="160" height="160" as="geometry" />
        </mxCell>
        <mxCell id="MiLaBuK5yZqJPt-kDE5x-11" value="image_idPK)&lt;div&gt;&lt;br&gt;&lt;/div&gt;&lt;div&gt;product_id(FK)&lt;/div&gt;&lt;div&gt;&lt;br&gt;&lt;/div&gt;&lt;div&gt;color_id(FK)&lt;/div&gt;&lt;div&gt;&lt;br&gt;&lt;/div&gt;&lt;div&gt;size_id(FK)&lt;/div&gt;" style="whiteSpace=wrap;html=1;aspect=fixed;" vertex="1" parent="MiLaBuK5yZqJPt-kDE5x-44">
          <mxGeometry width="160" height="160" as="geometry" />
        </mxCell>
        <mxCell id="MiLaBuK5yZqJPt-kDE5x-12" value="product_image" style="rounded=0;whiteSpace=wrap;html=1;" vertex="1" parent="MiLaBuK5yZqJPt-kDE5x-44">
          <mxGeometry width="160" height="30" as="geometry" />
        </mxCell>
        <mxCell id="MiLaBuK5yZqJPt-kDE5x-45" value="" style="group" vertex="1" connectable="0" parent="1">
          <mxGeometry x="620" y="60" width="160" height="160" as="geometry" />
        </mxCell>
        <mxCell id="MiLaBuK5yZqJPt-kDE5x-5" value="color_id(PK)&lt;div&gt;&lt;br&gt;&lt;/div&gt;&lt;div&gt;name&lt;/div&gt;&lt;div&gt;&lt;br&gt;&lt;/div&gt;&lt;div&gt;hex_code&lt;/div&gt;" style="whiteSpace=wrap;html=1;aspect=fixed;" vertex="1" parent="MiLaBuK5yZqJPt-kDE5x-45">
          <mxGeometry width="160" height="160" as="geometry" />
        </mxCell>
        <mxCell id="MiLaBuK5yZqJPt-kDE5x-6" value="color" style="rounded=0;whiteSpace=wrap;html=1;" vertex="1" parent="MiLaBuK5yZqJPt-kDE5x-45">
          <mxGeometry width="160" height="30" as="geometry" />
        </mxCell>
        <mxCell id="MiLaBuK5yZqJPt-kDE5x-46" value="" style="group" vertex="1" connectable="0" parent="1">
          <mxGeometry x="-710" y="60" width="160" height="160" as="geometry" />
        </mxCell>
        <mxCell id="MiLaBuK5yZqJPt-kDE5x-1" value="brand_id (PK)&lt;div&gt;&lt;br&gt;&lt;div&gt;name&lt;/div&gt;&lt;div&gt;&lt;br&gt;&lt;/div&gt;&lt;div&gt;description&lt;/div&gt;&lt;/div&gt;" style="whiteSpace=wrap;html=1;aspect=fixed;" vertex="1" parent="MiLaBuK5yZqJPt-kDE5x-46">
          <mxGeometry width="160" height="160" as="geometry" />
        </mxCell>
        <mxCell id="MiLaBuK5yZqJPt-kDE5x-2" value="brand" style="rounded=0;whiteSpace=wrap;html=1;" vertex="1" parent="MiLaBuK5yZqJPt-kDE5x-46">
          <mxGeometry width="160" height="40" as="geometry" />
        </mxCell>
        <mxCell id="MiLaBuK5yZqJPt-kDE5x-47" value="" style="group" vertex="1" connectable="0" parent="1">
          <mxGeometry x="-220" y="220" width="160" height="190" as="geometry" />
        </mxCell>
        <mxCell id="MiLaBuK5yZqJPt-kDE5x-7" value="product_id(PK)&lt;div&gt;&lt;br&gt;&lt;div&gt;&lt;span style=&quot;background-color: transparent; color: light-dark(rgb(0, 0, 0), rgb(255, 255, 255));&quot;&gt;brand_id(FK)&lt;/span&gt;&lt;/div&gt;&lt;div&gt;&lt;span style=&quot;background-color: transparent; color: light-dark(rgb(0, 0, 0), rgb(255, 255, 255));&quot;&gt;&lt;br&gt;&lt;/span&gt;&lt;/div&gt;&lt;div&gt;&lt;span style=&quot;background-color: transparent; color: light-dark(rgb(0, 0, 0), rgb(255, 255, 255));&quot;&gt;category_id(FK)&lt;/span&gt;&lt;/div&gt;&lt;div&gt;&lt;span style=&quot;background-color: transparent; color: light-dark(rgb(0, 0, 0), rgb(255, 255, 255));&quot;&gt;&lt;br&gt;&lt;/span&gt;&lt;/div&gt;&lt;div&gt;&lt;span style=&quot;background-color: transparent; color: light-dark(rgb(0, 0, 0), rgb(255, 255, 255));&quot;&gt;name&lt;/span&gt;&lt;/div&gt;&lt;div&gt;&lt;span style=&quot;background-color: transparent; color: light-dark(rgb(0, 0, 0), rgb(255, 255, 255));&quot;&gt;&lt;br&gt;&lt;/span&gt;&lt;/div&gt;&lt;div&gt;&lt;span style=&quot;background-color: transparent; color: light-dark(rgb(0, 0, 0), rgb(255, 255, 255));&quot;&gt;description&lt;/span&gt;&lt;/div&gt;&lt;/div&gt;&lt;div&gt;base_price&lt;/div&gt;" style="whiteSpace=wrap;html=1;aspect=fixed;" vertex="1" parent="MiLaBuK5yZqJPt-kDE5x-47">
          <mxGeometry y="30" width="160" height="160" as="geometry" />
        </mxCell>
        <mxCell id="MiLaBuK5yZqJPt-kDE5x-8" value="product" style="rounded=0;whiteSpace=wrap;html=1;" vertex="1" parent="MiLaBuK5yZqJPt-kDE5x-47">
          <mxGeometry width="160" height="30" as="geometry" />
        </mxCell>
        <mxCell id="MiLaBuK5yZqJPt-kDE5x-48" value="" style="group" vertex="1" connectable="0" parent="1">
          <mxGeometry x="50" y="850" width="160" height="160" as="geometry" />
        </mxCell>
        <mxCell id="MiLaBuK5yZqJPt-kDE5x-13" value="size_id(PK)&lt;div&gt;&lt;br&gt;&lt;/div&gt;&lt;div&gt;size_cat_id(FK)&lt;/div&gt;&lt;div&gt;&lt;br&gt;&lt;/div&gt;&lt;div&gt;label&lt;/div&gt;" style="whiteSpace=wrap;html=1;aspect=fixed;" vertex="1" parent="MiLaBuK5yZqJPt-kDE5x-48">
          <mxGeometry width="160" height="160" as="geometry" />
        </mxCell>
        <mxCell id="MiLaBuK5yZqJPt-kDE5x-14" value="size_category" style="rounded=0;whiteSpace=wrap;html=1;" vertex="1" parent="MiLaBuK5yZqJPt-kDE5x-48">
          <mxGeometry width="160" height="30" as="geometry" />
        </mxCell>
        <mxCell id="MiLaBuK5yZqJPt-kDE5x-49" value="" style="group" vertex="1" connectable="0" parent="1">
          <mxGeometry x="610" y="460" width="160" height="160" as="geometry" />
        </mxCell>
        <mxCell id="MiLaBuK5yZqJPt-kDE5x-15" value="&lt;div&gt;item_idP(K)&lt;/div&gt;&lt;div&gt;variation_id(FK)&lt;/div&gt;&lt;div&gt;sku&lt;/div&gt;&lt;div&gt;stock&lt;/div&gt;&lt;div&gt;price&lt;/div&gt;" style="whiteSpace=wrap;html=1;aspect=fixed;" vertex="1" parent="MiLaBuK5yZqJPt-kDE5x-49">
          <mxGeometry width="160" height="160" as="geometry" />
        </mxCell>
        <mxCell id="MiLaBuK5yZqJPt-kDE5x-16" value="product_item" style="rounded=0;whiteSpace=wrap;html=1;" vertex="1" parent="MiLaBuK5yZqJPt-kDE5x-49">
          <mxGeometry width="160" height="30" as="geometry" />
        </mxCell>
        <mxCell id="MiLaBuK5yZqJPt-kDE5x-50" value="" style="group" vertex="1" connectable="0" parent="1">
          <mxGeometry x="-190" y="870" width="160" height="160" as="geometry" />
        </mxCell>
        <mxCell id="MiLaBuK5yZqJPt-kDE5x-17" value="attr_type_id(PK)&lt;div&gt;&lt;br&gt;&lt;/div&gt;&lt;div&gt;name&lt;/div&gt;" style="whiteSpace=wrap;html=1;aspect=fixed;" vertex="1" parent="MiLaBuK5yZqJPt-kDE5x-50">
          <mxGeometry width="160" height="160" as="geometry" />
        </mxCell>
        <mxCell id="MiLaBuK5yZqJPt-kDE5x-18" value="attribute_type" style="rounded=0;whiteSpace=wrap;html=1;" vertex="1" parent="MiLaBuK5yZqJPt-kDE5x-50">
          <mxGeometry width="160" height="30" as="geometry" />
        </mxCell>
        <mxCell id="MiLaBuK5yZqJPt-kDE5x-51" value="" style="group" vertex="1" connectable="0" parent="1">
          <mxGeometry x="570" y="840" width="160" height="160" as="geometry" />
        </mxCell>
        <mxCell id="MiLaBuK5yZqJPt-kDE5x-19" value="&lt;div&gt;size_id(PK)&lt;/div&gt;&lt;div&gt;&lt;br&gt;&lt;/div&gt;&lt;div&gt;size_cat_id(FK)&lt;/div&gt;&lt;div&gt;&lt;br&gt;&lt;/div&gt;&lt;div&gt;label&lt;/div&gt;" style="whiteSpace=wrap;html=1;aspect=fixed;" vertex="1" parent="MiLaBuK5yZqJPt-kDE5x-51">
          <mxGeometry width="160" height="160" as="geometry" />
        </mxCell>
        <mxCell id="MiLaBuK5yZqJPt-kDE5x-20" value="size_option" style="rounded=0;whiteSpace=wrap;html=1;" vertex="1" parent="MiLaBuK5yZqJPt-kDE5x-51">
          <mxGeometry width="160" height="30" as="geometry" />
        </mxCell>
        <mxCell id="MiLaBuK5yZqJPt-kDE5x-52" value="" style="group" vertex="1" connectable="0" parent="1">
          <mxGeometry x="-510" y="570" width="160" height="160" as="geometry" />
        </mxCell>
        <mxCell id="MiLaBuK5yZqJPt-kDE5x-21" value="attr_id(PK)&lt;div&gt;&lt;br&gt;&lt;/div&gt;&lt;div&gt;product_id(FK)&lt;/div&gt;&lt;div&gt;attr_cat_id(FK)&lt;/div&gt;&lt;div&gt;attr_type_id(FK)&lt;/div&gt;&lt;div&gt;&lt;br&gt;&lt;/div&gt;&lt;div&gt;value&lt;/div&gt;" style="whiteSpace=wrap;html=1;aspect=fixed;" vertex="1" parent="MiLaBuK5yZqJPt-kDE5x-52">
          <mxGeometry width="160" height="160" as="geometry" />
        </mxCell>
        <mxCell id="MiLaBuK5yZqJPt-kDE5x-22" value="product_attribute" style="rounded=0;whiteSpace=wrap;html=1;" vertex="1" parent="MiLaBuK5yZqJPt-kDE5x-52">
          <mxGeometry width="160" height="30" as="geometry" />
        </mxCell>
        <mxCell id="MiLaBuK5yZqJPt-kDE5x-53" value="" style="group" vertex="1" connectable="0" parent="1">
          <mxGeometry x="-820" y="680" width="160" height="160" as="geometry" />
        </mxCell>
        <mxCell id="MiLaBuK5yZqJPt-kDE5x-23" value="attr_cat_id(PK)&lt;div&gt;&lt;br&gt;&lt;/div&gt;&lt;div&gt;name&lt;/div&gt;" style="whiteSpace=wrap;html=1;aspect=fixed;" vertex="1" parent="MiLaBuK5yZqJPt-kDE5x-53">
          <mxGeometry width="160" height="160" as="geometry" />
        </mxCell>
        <mxCell id="MiLaBuK5yZqJPt-kDE5x-24" value="attribute_category" style="rounded=0;whiteSpace=wrap;html=1;" vertex="1" parent="MiLaBuK5yZqJPt-kDE5x-53">
          <mxGeometry width="160" height="30" as="geometry" />
        </mxCell>
        <mxCell id="MiLaBuK5yZqJPt-kDE5x-54" value="" style="group" vertex="1" connectable="0" parent="1">
          <mxGeometry x="190" y="330" width="160" height="160" as="geometry" />
        </mxCell>
        <mxCell id="MiLaBuK5yZqJPt-kDE5x-3" value="category_id (PK&lt;span style=&quot;background-color: transparent; color: light-dark(rgb(0, 0, 0), rgb(255, 255, 255));&quot;&gt;)&lt;/span&gt;&lt;div&gt;&lt;br&gt;&lt;/div&gt;&lt;div&gt;&lt;div&gt;&lt;div&gt;&lt;div&gt;color_id&lt;/div&gt;&lt;div&gt;&lt;br&gt;&lt;/div&gt;&lt;div&gt;description&lt;/div&gt;&lt;/div&gt;&lt;/div&gt;&lt;/div&gt;" style="whiteSpace=wrap;html=1;aspect=fixed;" vertex="1" parent="MiLaBuK5yZqJPt-kDE5x-54">
          <mxGeometry width="160" height="160" as="geometry" />
        </mxCell>
        <mxCell id="MiLaBuK5yZqJPt-kDE5x-4" value="product_category" style="rounded=0;whiteSpace=wrap;html=1;" vertex="1" parent="MiLaBuK5yZqJPt-kDE5x-54">
          <mxGeometry width="160" height="30" as="geometry" />
        </mxCell>
        <mxCell id="MiLaBuK5yZqJPt-kDE5x-55" value="" style="group" vertex="1" connectable="0" parent="1">
          <mxGeometry x="240" y="610" width="160" height="190" as="geometry" />
        </mxCell>
        <mxCell id="MiLaBuK5yZqJPt-kDE5x-9" value="variation_id&lt;div&gt;&lt;br&gt;&lt;/div&gt;&lt;div&gt;product_id(FK)&lt;/div&gt;&lt;div&gt;&lt;br&gt;&lt;/div&gt;&lt;div&gt;color_id(FK)&lt;/div&gt;&lt;div&gt;&lt;br&gt;&lt;/div&gt;&lt;div&gt;size_id(FK)&lt;/div&gt;" style="whiteSpace=wrap;html=1;aspect=fixed;" vertex="1" parent="MiLaBuK5yZqJPt-kDE5x-55">
          <mxGeometry y="30" width="160" height="160" as="geometry" />
        </mxCell>
        <mxCell id="MiLaBuK5yZqJPt-kDE5x-10" value="product_vaiation" style="rounded=0;whiteSpace=wrap;html=1;" vertex="1" parent="MiLaBuK5yZqJPt-kDE5x-55">
          <mxGeometry width="160" height="30" as="geometry" />
        </mxCell>
        <mxCell id="MiLaBuK5yZqJPt-kDE5x-56" value="" style="edgeStyle=entityRelationEdgeStyle;fontSize=12;html=1;endArrow=ERoneToMany;rounded=0;exitX=-0.016;exitY=0.433;exitDx=0;exitDy=0;exitPerimeter=0;" edge="1" parent="1" source="MiLaBuK5yZqJPt-kDE5x-19" target="MiLaBuK5yZqJPt-kDE5x-9">
          <mxGeometry width="100" height="100" relative="1" as="geometry">
            <mxPoint x="420" y="700" as="sourcePoint" />
            <mxPoint x="478" y="550" as="targetPoint" />
          </mxGeometry>
        </mxCell>
        <mxCell id="MiLaBuK5yZqJPt-kDE5x-57" value="" style="edgeStyle=entityRelationEdgeStyle;fontSize=12;html=1;endArrow=ERoneToMany;rounded=0;exitX=-0.001;exitY=0.572;exitDx=0;exitDy=0;exitPerimeter=0;" edge="1" parent="1" source="MiLaBuK5yZqJPt-kDE5x-19" target="MiLaBuK5yZqJPt-kDE5x-13">
          <mxGeometry width="100" height="100" relative="1" as="geometry">
            <mxPoint x="760" y="630" as="sourcePoint" />
            <mxPoint x="700" y="850" as="targetPoint" />
          </mxGeometry>
        </mxCell>
        <mxCell id="MiLaBuK5yZqJPt-kDE5x-58" value="" style="edgeStyle=entityRelationEdgeStyle;fontSize=12;html=1;endArrow=ERoneToMany;rounded=0;entryX=1;entryY=0.5;entryDx=0;entryDy=0;" edge="1" parent="1" source="MiLaBuK5yZqJPt-kDE5x-21" target="MiLaBuK5yZqJPt-kDE5x-23">
          <mxGeometry width="100" height="100" relative="1" as="geometry">
            <mxPoint x="-80" y="530" as="sourcePoint" />
            <mxPoint x="140" y="660" as="targetPoint" />
          </mxGeometry>
        </mxCell>
        <mxCell id="MiLaBuK5yZqJPt-kDE5x-59" value="" style="edgeStyle=entityRelationEdgeStyle;fontSize=12;html=1;endArrow=ERoneToMany;rounded=0;entryX=0;entryY=0.5;entryDx=0;entryDy=0;exitX=0.973;exitY=0.708;exitDx=0;exitDy=0;exitPerimeter=0;" edge="1" parent="1" source="MiLaBuK5yZqJPt-kDE5x-21" target="MiLaBuK5yZqJPt-kDE5x-17">
          <mxGeometry width="100" height="100" relative="1" as="geometry">
            <mxPoint x="-80" y="530" as="sourcePoint" />
            <mxPoint y="570" as="targetPoint" />
          </mxGeometry>
        </mxCell>
      </root>
    </mxGraphModel>
  </diagram>
</mxfile>
